Coordinates
version=1
nRows=8
nColumns=40
inDegrees=yes

Units are S.I. units (second, meters, Newtons, ...)
Angles are in degrees.

endheader
time	pelvis_tilt	pelvis_list	pelvis_rotation	pelvis_tx	pelvis_ty	pelvis_tz	hip_flexion_r	hip_adduction_r	hip_rotation_r	knee_angle_r	knee_angle_r_beta	ankle_angle_r	subtalar_angle_r	mtp_angle_r	hip_flexion_l	hip_adduction_l	hip_rotation_l	knee_angle_l	knee_angle_l_beta	ankle_angle_l	subtalar_angle_l	mtp_angle_l	lumbar_extension	lumbar_bending	lumbar_rotation	arm_flex_r	arm_add_r	arm_rot_r	elbow_flex_r	pro_sup_r	wrist_flex_r	wrist_dev_r	arm_flex_l	arm_add_l	arm_rot_l	elbow_flex_l	pro_sup_l	wrist_flex_l	wrist_dev_l
      2.36214286	     -2.80064562	     -4.34840587	     -2.85338128	      0.91073015	      0.91030929	      0.41659195	     23.66754182	     -7.35523473	     -6.88368208	     65.00853774	     65.00853774	      8.70460360	    -19.25746049	     14.71123017	     17.44370477	     -1.75626607	     -3.08553691	     35.14086389	     35.14086389	     23.22673437	    -18.21024843	      9.60709907	    -11.28709669	      6.42447801	      2.45015692	     11.66788051	    -13.03011148	    -18.18146400	     25.42175172	     46.86921604	      0.00000000	      0.00000000	     17.31545430	    -14.55498799	     14.35787115	     43.11596871	     45.42925235	      0.00000000	      0.00000000
      2.38178571	     -2.86725479	     -4.56385580	     -3.58480739	      0.90983228	      0.91166177	      0.41714856	     25.03768485	     -6.56190025	     -6.36237833	     63.62319657	     63.62319657	      9.35899245	    -19.18421335	     14.57044414	     16.64448540	     -2.10217355	     -3.65898959	     34.37909369	     34.37909369	     23.32827754	    -18.14918699	      9.64216599	    -11.45094409	      6.89305199	      2.36654363	      8.63796747	    -12.75939731	    -18.30010406	     24.58097950	     46.88651383	      0.00000000	      0.00000000	     18.82843042	    -15.10519497	     13.71661717	     44.65944385	     45.53705936	      0.00000000	      0.00000000
      2.40142857	     -2.98296650	     -4.77605641	     -4.37240015	      0.90882405	      0.91364134	      0.41806424	     26.26431955	     -5.64297024	     -5.77827507	     61.51916811	     61.51916811	      9.82172858	    -19.02438732	     13.94756211	     15.71921295	     -2.45753358	     -4.32221759	     33.27798677	     33.27798677	     23.24086672	    -18.07740831	      9.68768642	    -11.61877149	      7.37724411	      2.29101313	      5.77619038	    -12.54024727	    -18.40562745	     23.81756071	     46.90207751	      0.00000000	      0.00000000	     20.30388734	    -15.75698645	     12.97077964	     46.26838961	     45.64977676	      0.00000000	      0.00000000
      2.42107143	     -3.15665103	     -4.98870726	     -5.22467561	      0.90773544	      0.91603780	      0.41936320	     27.31297130	     -4.62943220	     -5.15357588	     58.71616318	     58.71616318	      9.97553658	    -18.69850116	     12.59040740	     14.70770424	     -2.83498462	     -5.09815682	     31.90820834	     31.90820834	     22.99732048	    -17.94070914	      9.62095794	    -11.79971418	      7.84738221	      2.35439625	      2.94327387	    -12.35994058	    -18.54925267	     23.28341369	     46.91199449	      0.00000000	      0.00000000	     21.69312153	    -16.43922500	     11.96359744	     48.31782801	     45.79129516	      0.00000000	      0.00000000
      2.44071429	     -3.47575506	     -5.16496856	     -6.07179057	      0.90659336	      0.91845691	      0.42090650	     28.08566341	     -3.76168084	     -4.82172697	     54.94812546	     54.94812546	      8.51653474	    -18.32821632	      6.25659658	     13.72948392	     -3.19242584	     -5.96727457	     30.26331255	     30.26331255	     22.21182810	    -17.81467020	      8.43906104	    -11.86128568	      8.30997835	      1.69494670	      0.22735356	    -12.05929931	    -18.88895267	     24.29492213	     46.87440026	      0.00000000	      0.00000000	     21.95319074	    -17.51342616	      9.35979319	     51.93726441	     46.12169484	      0.00000000	      0.00000000
      2.46035714	     -3.99192916	     -5.30117623	     -6.92900006	      0.90523903	      0.92063272	      0.42276425	     29.07005160	     -2.77728740	     -4.31666679	     51.13074043	     51.13074043	      8.88757363	    -17.13202839	      6.00172321	     13.03067628	     -3.51131816	     -6.78281292	     28.76101206	     28.76101206	     21.96899409	    -17.53769771	      8.76672476	    -11.60406517	      8.75977755	      1.37700446	     -1.89385757	    -11.89803354	    -18.91628140	     23.50960404	     46.89181803	      0.00000000	      0.00000000	     23.41763413	    -18.57946590	      8.75118253	     52.75281869	     46.19854317	      0.00000000	      0.00000000
      2.48000000	     -4.14786086	     -5.38832079	     -7.85539890	      0.90422480	      0.92328362	      0.42491115	     28.99063791	     -2.00159054	     -4.10530249	     46.02092274	     46.02092274	      6.41052988	    -16.34915445	     -2.36722899	     11.64817517	     -3.71297636	     -7.76912349	     26.73048582	     26.73048582	     21.06168744	    -17.38294629	      7.59661569	    -11.94433945	      8.99860122	      1.42502526	     -4.22637775	    -11.89898894	    -18.72277808	     23.49599925	     46.87309879	      0.00000000	      0.00000000	     24.19135621	    -19.05899033	      5.89808710	     56.04164118	     46.57432098	      0.00000000	      0.00000000
      2.49964286	     -4.48033578	     -5.43732172	     -8.71321392	      0.90308958	      0.92524977	      0.42726498	     29.15163782	     -1.25574295	     -3.99957166	     41.29753583	     41.29753583	      6.59258852	    -13.72268076	     -2.57108825	     10.65598349	     -3.89333676	     -8.67445110	     25.08757335	     25.08757335	     20.79909582	    -16.98994738	      7.80510978	    -11.97931623	      9.25470486	      1.48213870	     -6.18497853	    -11.85360680	    -18.81886054	     23.08529072	     46.88283940	      0.00000000	      0.00000000	     25.66731425	    -19.93980771	      5.13344767	     57.49323266	     46.67343579	      0.00000000	      0.00000000
